# xmcd
# 
# Track frame offsets:
#     150
#     21087
#     43277
#     69935
#     91295
# 
# Disc length: 1511
# 
# Revision: 1
# Processed by: cddbd v1.5.2PL0 Copyright (c) Steve Scherf et al.
# Submitted via: BonkEnc v1.0.6
# 
DISCID=3905e505
DTITLE=Various Artist - YES FOREVER
DYEAR=0
DGENRE=JPop
TTITLE0=MISIA - Yes Forever
TTITLE1=MISIA - Yes Forever (Piano Version)
TTITLE2=MISIA - 太陽の地図
TTITLE3=MISIA - 以心伝心
TTITLE4=MISIA - Yes Forever (Piano Version instrumental)
EXTD=
EXTT0=
EXTT1=
EXTT2=
EXTT3=
EXTT4=
PLAYORDER=
